<svg width="110" height="41" viewBox="0 0 110 41" fill="none" xmlns="http://www.w3.org/2000/svg">
<path d="M8.44 36.24C7.37333 36.24 6.38667 36.0467 5.48 35.66C4.58667 35.2733 3.8 34.7333 3.12 34.04C2.45333 33.3467 1.93333 32.5333 1.56 31.6C1.18667 30.6667 1 29.6467 1 28.54C1 27.4333 1.18 26.4133 1.54 25.48C1.91333 24.5333 2.43333 23.72 3.1 23.04C3.78 22.3467 4.57333 21.8133 5.48 21.44C6.38667 21.0533 7.37333 20.86 8.44 20.86C9.50667 20.86 10.46 21.04 11.3 21.4C12.1533 21.76 12.8733 22.24 13.46 22.84C14.0467 23.4267 14.4667 24.0733 14.72 24.78L12.28 25.92C12 25.1733 11.5267 24.56 10.86 24.08C10.1933 23.5867 9.38667 23.34 8.44 23.34C7.50667 23.34 6.68 23.56 5.96 24C5.25333 24.44 4.7 25.0467 4.3 25.82C3.91333 26.5933 3.72 27.5 3.72 28.54C3.72 29.58 3.91333 30.4933 4.3 31.28C4.7 32.0533 5.25333 32.66 5.96 33.1C6.68 33.54 7.50667 33.76 8.44 33.76C9.38667 33.76 10.1933 33.52 10.86 33.04C11.5267 32.5467 12 31.9267 12.28 31.18L14.72 32.32C14.4667 33.0267 14.0467 33.68 13.46 34.28C12.8733 34.8667 12.1533 35.34 11.3 35.7C10.46 36.06 9.50667 36.24 8.44 36.24ZM16.7083 36V20.86H19.3283V27.26L18.9683 26.88C19.2216 26.2267 19.6349 25.7333 20.2083 25.4C20.7949 25.0533 21.4749 24.88 22.2483 24.88C23.0483 24.88 23.7549 25.0533 24.3683 25.4C24.9949 25.7467 25.4816 26.2333 25.8283 26.86C26.1749 27.4733 26.3483 28.1867 26.3483 29V36H23.7283V29.62C23.7283 29.14 23.6349 28.7267 23.4483 28.38C23.2616 28.0333 23.0016 27.7667 22.6683 27.58C22.3483 27.38 21.9683 27.28 21.5283 27.28C21.1016 27.28 20.7216 27.38 20.3883 27.58C20.0549 27.7667 19.7949 28.0333 19.6083 28.38C19.4216 28.7267 19.3283 29.14 19.3283 29.62V36H16.7083ZM31.8638 36.24C31.1038 36.24 30.4438 36.1133 29.8838 35.86C29.3238 35.6067 28.8904 35.2467 28.5838 34.78C28.2771 34.3 28.1238 33.7467 28.1238 33.12C28.1238 32.52 28.2571 31.9867 28.5238 31.52C28.7904 31.04 29.2038 30.64 29.7638 30.32C30.3238 30 31.0304 29.7733 31.8838 29.64L35.4438 29.06V31.06L32.3838 31.58C31.8638 31.6733 31.4771 31.84 31.2238 32.08C30.9704 32.32 30.8438 32.6333 30.8438 33.02C30.8438 33.3933 30.9838 33.6933 31.2638 33.92C31.5571 34.1333 31.9171 34.24 32.3438 34.24C32.8904 34.24 33.3704 34.1267 33.7838 33.9C34.2104 33.66 34.5371 33.3333 34.7638 32.92C35.0038 32.5067 35.1238 32.0533 35.1238 31.56V28.76C35.1238 28.2933 34.9371 27.9067 34.5638 27.6C34.2038 27.28 33.7238 27.12 33.1238 27.12C32.5638 27.12 32.0638 27.2733 31.6238 27.58C31.1971 27.8733 30.8838 28.2667 30.6838 28.76L28.5438 27.72C28.7571 27.1467 29.0904 26.6533 29.5438 26.24C30.0104 25.8133 30.5571 25.48 31.1838 25.24C31.8104 25 32.4904 24.88 33.2237 24.88C34.1171 24.88 34.9038 25.0467 35.5838 25.38C36.2638 25.7 36.7904 26.1533 37.1638 26.74C37.5504 27.3133 37.7438 27.9867 37.7438 28.76V36H35.2638V34.14L35.8238 34.1C35.5438 34.5667 35.2104 34.96 34.8238 35.28C34.4371 35.5867 33.9971 35.8267 33.5038 36C33.0104 36.16 32.4638 36.24 31.8638 36.24ZM44.93 36.12C43.7033 36.12 42.75 35.7867 42.07 35.12C41.4033 34.44 41.07 33.4867 41.07 32.26V27.46H39.19V25.12H39.39C39.9233 25.12 40.3367 24.98 40.63 24.7C40.9233 24.42 41.07 24.0133 41.07 23.48V22.64H43.69V25.12H46.19V27.46H43.69V32.12C43.69 32.48 43.75 32.7867 43.87 33.04C44.0033 33.2933 44.2033 33.4867 44.47 33.62C44.75 33.7533 45.1033 33.82 45.53 33.82C45.6233 33.82 45.73 33.8133 45.85 33.8C45.9833 33.7867 46.11 33.7733 46.23 33.76V36C46.0433 36.0267 45.83 36.0533 45.59 36.08C45.35 36.1067 45.13 36.12 44.93 36.12ZM53.1917 36.12C51.9651 36.12 51.0117 35.7867 50.3317 35.12C49.6651 34.44 49.3317 33.4867 49.3317 32.26V27.46H47.4517V25.12H47.6517C48.1851 25.12 48.5984 24.98 48.8917 24.7C49.1851 24.42 49.3317 24.0133 49.3317 23.48V22.64H51.9517V25.12H54.4517V27.46H51.9517V32.12C51.9517 32.48 52.0117 32.7867 52.1317 33.04C52.2651 33.2933 52.4651 33.4867 52.7317 33.62C53.0117 33.7533 53.3651 33.82 53.7917 33.82C53.8851 33.82 53.9917 33.8133 54.1117 33.8C54.2451 33.7867 54.3717 33.7733 54.4917 33.76V36C54.3051 36.0267 54.0917 36.0533 53.8517 36.08C53.6117 36.1067 53.3917 36.12 53.1917 36.12ZM61.5558 36.24C60.4358 36.24 59.4558 35.9867 58.6158 35.48C57.7758 34.9733 57.1224 34.2867 56.6558 33.42C56.1891 32.5533 55.9558 31.5933 55.9558 30.54C55.9558 29.4467 56.1891 28.48 56.6558 27.64C57.1358 26.7867 57.7824 26.1133 58.5958 25.62C59.4224 25.1267 60.3424 24.88 61.3558 24.88C62.2091 24.88 62.9558 25.02 63.5958 25.3C64.2491 25.58 64.8024 25.9667 65.2558 26.46C65.7091 26.9533 66.0558 27.52 66.2958 28.16C66.5358 28.7867 66.6558 29.4667 66.6558 30.2C66.6558 30.3867 66.6424 30.58 66.6158 30.78C66.6024 30.98 66.5691 31.1533 66.5158 31.3H58.1158V29.3H65.0358L63.7958 30.24C63.9158 29.6267 63.8824 29.08 63.6958 28.6C63.5224 28.12 63.2291 27.74 62.8158 27.46C62.4158 27.18 61.9291 27.04 61.3558 27.04C60.8091 27.04 60.3224 27.18 59.8958 27.46C59.4691 27.7267 59.1424 28.1267 58.9158 28.66C58.7024 29.18 58.6224 29.8133 58.6758 30.56C58.6224 31.2267 58.7091 31.82 58.9358 32.34C59.1758 32.8467 59.5224 33.24 59.9758 33.52C60.4424 33.8 60.9758 33.94 61.5758 33.94C62.1758 33.94 62.6824 33.8133 63.0958 33.56C63.5224 33.3067 63.8558 32.9667 64.0958 32.54L66.2158 33.58C66.0024 34.1 65.6691 34.56 65.2158 34.96C64.7624 35.36 64.2224 35.6733 63.5958 35.9C62.9824 36.1267 62.3024 36.24 61.5558 36.24ZM68.6419 36V25.12H71.1019V27.54L70.9019 27.18C71.1552 26.3667 71.5485 25.8 72.0819 25.48C72.6285 25.16 73.2819 25 74.0419 25H74.6819V27.32H73.7419C72.9952 27.32 72.3952 27.5533 71.9419 28.02C71.4885 28.4733 71.2619 29.1133 71.2619 29.94V36H68.6419ZM76.1223 36V20.86H78.7423V36H76.1223ZM82.4814 40.42C82.1881 40.42 81.9014 40.3933 81.6214 40.34C81.3414 40.3 81.0881 40.2267 80.8614 40.12V37.92C81.0347 37.96 81.2414 38 81.4814 38.04C81.7347 38.08 81.9681 38.1 82.1814 38.1C82.7814 38.1 83.2147 37.96 83.4814 37.68C83.7614 37.4 84.0081 37.0333 84.2214 36.58L84.9414 34.9L84.9014 37.1L80.1614 25.12H82.9814L86.3014 33.96H85.3014L88.6014 25.12H91.4414L86.7014 37.1C86.4214 37.8067 86.0814 38.4067 85.6814 38.9C85.2814 39.3933 84.8147 39.7667 84.2814 40.02C83.7614 40.2867 83.1614 40.42 82.4814 40.42Z" fill="black"/>
<g clip-path="url(#clip0_2890_8)">
<path d="M95.2045 16.313C96.7619 16.313 98.3367 16.4209 99.8768 16.277C101.175 16.1511 102.438 15.7374 103.736 15.4856C104.03 15.4317 104.411 15.4317 104.636 15.5935C106.297 16.7446 108.304 16.4568 109.377 14.8741C110.45 13.2914 110.138 11.1871 108.546 10.036C108.01 9.65827 108.027 9.2446 108.079 8.74101C108.408 4.64029 105.605 1.13309 102.23 0.28777C101.538 0.107914 100.811 0.0359712 100.102 0.0179856C96.8312 0 93.5779 0 90.3073 0C85.9638 0.0179856 82.5894 3.23741 82.2952 7.64389C82.0011 11.9065 85.0121 15.7734 89.2344 16.259C91.2071 16.4928 93.2145 16.295 95.2045 16.295V16.313ZM101.469 5.89928C102.732 5.8813 103.753 6.92446 103.736 8.20144C103.718 9.51439 102.732 10.5396 101.469 10.5216C100.257 10.5036 99.2538 9.4964 99.2365 8.2554C99.2192 6.96043 100.223 5.89928 101.469 5.89928ZM95.1872 5.89928C96.4505 5.8813 97.4887 6.88849 97.506 8.16547C97.5233 9.46043 96.5197 10.5216 95.2737 10.5396C94.0624 10.5576 93.0414 9.55036 93.0068 8.30935C92.9549 6.9964 93.9413 5.91727 95.1872 5.89928ZM86.7598 8.18345C86.7771 6.88849 87.7808 5.8813 89.0441 5.89928C90.2554 5.91727 91.2591 6.96043 91.2591 8.18345C91.2591 9.47842 90.2381 10.5216 88.9921 10.5216C87.7462 10.5216 86.7425 9.47842 86.7598 8.18345Z" fill="#3C72FF"/>
<path d="M81.3089 5.9892C79.3534 7.8597 78.7651 10.0719 78.8516 12.5899C78.9381 15.1798 78.6093 17.6798 77 19.8021C78.3152 20.3237 79.613 19.7662 81.4473 18.0935C83.472 19.8201 85.8773 20.0719 88.4211 20C91.5359 19.9101 94.6508 20 97.7656 19.946C99.8595 19.9101 101.642 18.9928 103.268 17.3921C102.922 17.3561 102.715 17.3201 102.507 17.3201C97.956 17.3561 93.4048 17.482 88.8364 17.446C84.6487 17.4101 81.3435 13.6331 81.3089 9.01078C81.2916 8.03956 81.3089 7.08632 81.3089 5.9892Z" fill="#3C72FF"/>
</g>
<defs>
<clipPath id="clip0_2890_8">
<rect width="33" height="20" fill="white" transform="matrix(-1 0 0 1 110 0)"/>
</clipPath>
</defs>
</svg>
